<?xml version="1.0" standalone="no"?>
<!DOCTYPE svg PUBLIC "-//W3C//DTD SVG 20010904//EN"
 "http://www.w3.org/TR/2001/REC-SVG-20010904/DTD/svg10.dtd">
<svg version="1.0" xmlns="http://www.w3.org/2000/svg"
 width="1080.000000pt" height="1080.000000pt" viewBox="0 0 1080.000000 1080.000000"
 preserveAspectRatio="xMidYMid meet">
<metadata>
Created by potrace 1.14, written by Peter Selinger 2001-2017
</metadata>
<g transform="translate(0.000000,1080.000000) scale(0.100000,-0.100000)"
fill="#000000" stroke="none">
<path d="M5300 9973 c-799 -86 -1513 -715 -1683 -1483 -37 -167 -43 -232 -22
-250 23 -19 68 -2 77 30 4 14 16 77 28 140 83 451 380 887 795 1165 122 81
331 185 453 225 185 59 295 75 522 75 179 0 216 -3 293 -23 247 -62 422 -177
544 -357 205 -303 431 -1047 469 -1545 l7 -85 -89 -14 c-191 -29 -331 -90
-427 -187 -71 -70 -118 -147 -151 -244 -84 -253 -5 -466 213 -573 84 -41 88
-42 191 -42 93 0 111 3 160 26 96 46 156 122 187 234 19 72 36 406 28 568 l-7
137 168 0 c224 0 549 -16 813 -40 118 -11 220 -20 226 -20 14 0 30 -155 80
-785 110 -1383 157 -2564 159 -3990 1 -811 1 -831 -19 -870 -36 -72 -62 -79
-350 -86 -400 -11 -2321 -10 -2863 1 -772 16 -1947 59 -2442 90 -85 6 -165 10
-177 10 l-23 0 0 303 c0 936 58 2623 140 4087 32 569 72 1145 79 1153 13 14
197 56 294 66 213 24 471 7 707 -45 176 -40 328 -101 438 -176 l44 -30 -80
-32 c-256 -103 -382 -260 -382 -474 0 -64 5 -87 28 -137 106 -224 447 -248
635 -45 80 86 101 146 101 285 0 122 -17 189 -74 286 -17 28 -29 54 -26 56 17
17 244 48 491 68 192 16 420 18 575 6 109 -9 130 -2 130 38 0 54 -10 56 -295
60 -347 4 -654 -19 -896 -68 l-86 -18 -64 49 c-116 88 -260 155 -445 207 -277
77 -699 98 -939 47 -98 -21 -231 -64 -243 -79 -10 -12 -18 -109 -53 -647 -87
-1375 -144 -2732 -169 -4075 -14 -760 -13 -940 5 -958 18 -19 64 -23 535 -47
1204 -61 2387 -90 3653 -89 957 0 1634 13 1696 30 29 8 61 29 92 58 82 80 79
44 79 925 0 1628 -65 3042 -216 4706 -12 136 -20 179 -33 193 -18 18 -78 26
-371 47 -215 15 -732 40 -836 40 l-91 0 -12 113 c-53 488 -193 995 -381 1382
-179 370 -436 557 -830 605 -80 9 -283 11 -360 3z m1495 -2501 c-1 -360 -16
-442 -92 -514 -80 -76 -254 -77 -374 -2 -53 33 -115 109 -133 161 -20 59 -20
162 -1 236 34 130 126 255 238 321 87 51 324 108 352 84 6 -6 10 -113 10 -286z
m-2507 -171 c67 -98 100 -232 82 -328 -20 -112 -75 -184 -174 -230 -53 -24
-73 -28 -151 -28 -72 1 -98 5 -131 22 -164 86 -162 315 4 463 59 53 147 101
242 131 82 27 91 25 128 -30z"/>
<path d="M5420 5974 c-80 -20 -430 -90 -540 -109 -52 -8 -105 -17 -117 -20
-17 -4 -28 -26 -57 -111 l-35 -106 20 -39 19 -39 75 0 c40 0 85 -4 99 -10 23
-8 26 -15 26 -58 0 -86 -562 -2323 -602 -2395 -29 -52 -82 -82 -169 -97 l-66
-11 -58 -155 c-32 -85 -56 -156 -54 -158 2 -2 31 0 64 5 166 24 422 39 691 39
l291 0 53 120 c52 117 53 121 38 157 l-14 38 -120 1 c-66 0 -132 4 -146 7 -51
13 -47 52 47 443 l56 230 172 -4 c194 -5 304 6 435 44 265 77 476 202 695 414
217 209 356 424 442 685 26 77 26 86 20 229 -14 349 -84 565 -230 712 -87 89
-180 136 -309 159 -118 20 -171 19 -241 -5 -75 -26 -225 -106 -338 -180 -98
-65 -99 -64 -41 51 l33 66 -26 57 c-29 61 -29 61 -113 40z m567 -483 c96 -42
174 -150 202 -279 15 -74 14 -233 -4 -334 -16 -92 -71 -262 -112 -342 -103
-205 -268 -358 -455 -421 -109 -37 -284 -45 -428 -21 -129 22 -162 34 -156 54
3 10 30 114 61 232 49 187 221 792 257 904 15 47 54 77 183 141 148 74 225 96
320 92 55 -3 96 -11 132 -26z"/>
</g>
</svg>
